<?xml version="1.0" encoding="utf-8"?>
<!-- Generator: Adobe Illustrator 16.0.3, SVG Export Plug-In . SVG Version: 6.00 Build 0)  -->
<!DOCTYPE svg PUBLIC "-//W3C//DTD SVG 1.1//EN" "http://www.w3.org/Graphics/SVG/1.1/DTD/svg11.dtd">
<svg version="1.1" id="Layer_1" xmlns="http://www.w3.org/2000/svg" xmlns:xlink="http://www.w3.org/1999/xlink" x="0px" y="0px"
	 width="750px" height="500px" viewBox="0 0 750 500" enable-background="new 0 0 750 500" xml:space="preserve">
<g>
	<path fill="#FFFFFF" stroke="#000000" stroke-miterlimit="10" d="M331.858,172.573c1.892,4.212-2.891,8.262-6.738,5.709
		c-0.047-0.031-0.094-0.063-0.141-0.093c-4.168-2.753-30.644-15.627-44.904-19.413c-2.922-0.774-5.711-1.987-8.226-3.661
		c-16.099-10.745-40.004-17.514-52.908-18.035c-2.204-0.088-3.646,2.275-2.532,4.178c0.159,0.277,0.327,0.568,0.512,0.864
		c5.093,5.831,15.909,23.92,14.796,25.692c-1.112,1.779-17.179,13.479-29.293,28.33c-12.106,14.857-7.369,23.526-6.973,29.826
		s-12.126,17.708-12.021,23.246c0.067,3.254,4.479,8.574,7.356,11.729c2.87,3.154,9.243,6.004,10.028,9.057
		c0.779,3.063-1.322,8.543,7.181,10.561c8.503,2.018,2.787,0.129,19.245,0.891c10.382,0.484,21.918,7.854,32.837,17.719
		c6.511,5.883,3.408,16.65-5.24,18.137c-0.305,0.053-0.609,0.104-0.915,0.152c-56.408,9.182-109.375-28.703-118.895-85.055
		c-9.588-56.755,28.848-110.401,85.58-119.635C267.99,105.058,313.085,130.766,331.858,172.573z"/>
</g>
<g>
	<path fill="#FFFFFF" stroke="#000000" stroke-miterlimit="10" d="M170.305,351.49v7.958c0,1.058-0.104,1.902-0.312,2.534
		c-0.208,0.633-0.59,1.204-1.147,1.714c-0.557,0.51-1.27,1.001-2.138,1.473c-2.511,1.359-4.928,2.351-7.25,2.974
		s-4.853,0.935-7.59,0.935c-3.191,0-6.099-0.491-8.723-1.473c-2.625-0.981-4.862-2.407-6.712-4.276
		c-1.851-1.869-3.271-4.135-4.262-6.797s-1.487-5.636-1.487-8.921c0-3.229,0.481-6.183,1.444-8.864
		c0.963-2.681,2.379-4.956,4.248-6.825s4.144-3.3,6.825-4.29c2.681-0.992,5.721-1.487,9.119-1.487c2.794,0,5.268,0.373,7.42,1.118
		c2.152,0.746,3.898,1.686,5.239,2.818c1.34,1.133,2.351,2.332,3.03,3.597s1.02,2.389,1.02,3.37c0,1.058-0.392,1.959-1.175,2.705
		c-0.784,0.746-1.723,1.118-2.818,1.118c-0.604,0-1.185-0.142-1.742-0.425c-0.557-0.283-1.024-0.68-1.402-1.189
		c-1.039-1.623-1.917-2.851-2.634-3.682c-0.718-0.83-1.685-1.529-2.903-2.096s-2.771-0.85-4.659-0.85
		c-1.945,0-3.682,0.336-5.211,1.006s-2.837,1.643-3.922,2.916c-1.086,1.275-1.917,2.838-2.492,4.688
		c-0.576,1.851-0.864,3.898-0.864,6.146c0,4.871,1.119,8.619,3.356,11.243c2.237,2.625,5.357,3.937,9.36,3.937
		c1.944,0,3.771-0.255,5.48-0.765c1.708-0.51,3.441-1.236,5.197-2.181v-6.74h-6.514c-1.567,0-2.752-0.235-3.554-0.708
		c-0.803-0.472-1.204-1.274-1.204-2.407c0-0.925,0.335-1.689,1.005-2.294c0.67-0.604,1.581-0.906,2.733-0.906h9.544
		c1.17,0,2.162,0.104,2.974,0.312c0.812,0.208,1.468,0.671,1.968,1.388C170.055,348.979,170.305,350.056,170.305,351.49z"/>
	<path fill="#FFFFFF" stroke="#000000" stroke-miterlimit="10" d="M185.457,357.919v6.457c0,1.567-0.368,2.743-1.104,3.526
		s-1.671,1.175-2.804,1.175c-1.114,0-2.03-0.396-2.747-1.189c-0.718-0.793-1.076-1.964-1.076-3.512v-21.523
		c0-3.474,1.255-5.211,3.767-5.211c1.284,0,2.209,0.406,2.775,1.218c0.566,0.813,0.878,2.011,0.935,3.597
		c0.925-1.586,1.874-2.784,2.846-3.597c0.972-0.812,2.27-1.218,3.894-1.218c1.624,0,3.2,0.406,4.729,1.218
		c1.529,0.813,2.294,1.889,2.294,3.229c0,0.944-0.326,1.723-0.977,2.336c-0.651,0.614-1.355,0.921-2.11,0.921
		c-0.283,0-0.968-0.175-2.053-0.524c-1.086-0.349-2.044-0.523-2.875-0.523c-1.133,0-2.058,0.297-2.775,0.893
		c-0.718,0.594-1.274,1.477-1.671,2.647s-0.67,2.563-0.821,4.177C185.532,353.629,185.457,355.597,185.457,357.919z"/>
	<path fill="#FFFFFF" stroke="#000000" stroke-miterlimit="10" d="M207.093,334.045c-1.076,0-1.997-0.33-2.761-0.991
		s-1.147-1.595-1.147-2.804c0-1.095,0.392-1.996,1.175-2.705c0.783-0.707,1.694-1.062,2.733-1.062c1,0,1.888,0.321,2.662,0.963
		c0.774,0.642,1.161,1.577,1.161,2.804c0,1.189-0.378,2.119-1.133,2.789C209.028,333.71,208.131,334.045,207.093,334.045z
		 M210.917,342.031v22.345c0,1.548-0.368,2.719-1.104,3.512s-1.671,1.189-2.804,1.189s-2.053-0.406-2.761-1.218
		s-1.062-1.973-1.062-3.483v-22.118c0-1.529,0.354-2.681,1.062-3.455c0.708-0.773,1.628-1.161,2.761-1.161s2.067,0.388,2.804,1.161
		C210.548,339.577,210.917,340.653,210.917,342.031z"/>
	<path fill="#FFFFFF" stroke="#000000" stroke-miterlimit="10" d="M218.903,364.376v-33.531c0-1.548,0.344-2.719,1.034-3.512
		c0.689-0.793,1.619-1.189,2.79-1.189c1.17,0,2.114,0.392,2.832,1.175c0.717,0.784,1.076,1.959,1.076,3.526v33.531
		c0,1.567-0.364,2.743-1.09,3.526c-0.727,0.783-1.667,1.175-2.818,1.175c-1.133,0-2.053-0.406-2.761-1.218
		S218.903,365.887,218.903,364.376z"/>
	<path fill="#FFFFFF" stroke="#000000" stroke-miterlimit="10" d="M234.621,364.376v-33.531c0-1.548,0.344-2.719,1.034-3.512
		c0.689-0.793,1.619-1.189,2.79-1.189c1.17,0,2.114,0.392,2.832,1.175c0.717,0.784,1.076,1.959,1.076,3.526v33.531
		c0,1.567-0.364,2.743-1.09,3.526c-0.727,0.783-1.667,1.175-2.818,1.175c-1.133,0-2.053-0.406-2.761-1.218
		S234.621,365.887,234.621,364.376z"/>
	<path fill="#FFFFFF" stroke="#000000" stroke-miterlimit="10" d="M286.249,355.257c0,1.321-0.325,2.752-0.978,4.29
		c-0.65,1.539-1.675,3.05-3.072,4.531c-1.397,1.482-3.182,2.687-5.353,3.611s-4.701,1.388-7.59,1.388
		c-2.19,0-4.182-0.208-5.976-0.623c-1.794-0.415-3.422-1.062-4.885-1.94c-1.463-0.877-2.809-2.033-4.036-3.469
		c-1.095-1.303-2.03-2.762-2.804-4.375c-0.774-1.615-1.355-3.338-1.742-5.169c-0.387-1.831-0.581-3.776-0.581-5.834
		c0-3.342,0.486-6.334,1.458-8.978c0.972-2.643,2.365-4.904,4.177-6.783c1.813-1.878,3.937-3.309,6.372-4.29
		s5.031-1.473,7.788-1.473c3.36,0,6.354,0.671,8.978,2.011c2.624,1.341,4.635,2.998,6.032,4.971s2.096,3.837,2.096,5.593
		c0,0.963-0.34,1.813-1.02,2.549s-1.501,1.104-2.464,1.104c-1.076,0-1.883-0.255-2.422-0.765c-0.537-0.51-1.137-1.388-1.798-2.634
		c-1.095-2.058-2.384-3.597-3.866-4.616c-1.481-1.02-3.309-1.529-5.479-1.529c-3.455,0-6.207,1.313-8.255,3.937
		c-2.049,2.625-3.073,6.354-3.073,11.187c0,3.229,0.453,5.915,1.359,8.058s2.19,3.742,3.852,4.8
		c1.661,1.058,3.606,1.586,5.834,1.586c2.417,0,4.46-0.599,6.132-1.798c1.67-1.199,2.931-2.96,3.78-5.282
		c0.358-1.095,0.803-1.987,1.331-2.677c0.528-0.688,1.378-1.033,2.549-1.033c1.001,0,1.859,0.35,2.577,1.048
		S286.249,354.219,286.249,355.257z"/>
	<path fill="#FFFFFF" stroke="#000000" stroke-miterlimit="10" d="M312.813,364.716c-1.869,1.454-3.677,2.544-5.423,3.271
		c-1.747,0.727-3.706,1.091-5.877,1.091c-1.982,0-3.725-0.392-5.225-1.175c-1.502-0.783-2.658-1.846-3.47-3.187
		s-1.218-2.794-1.218-4.361c0-2.114,0.67-3.917,2.011-5.409c1.341-1.491,3.182-2.492,5.522-3.002
		c0.491-0.113,1.709-0.368,3.653-0.765s3.61-0.76,4.999-1.091c1.387-0.33,2.893-0.73,4.517-1.203
		c-0.095-2.039-0.505-3.535-1.231-4.488c-0.728-0.953-2.233-1.431-4.518-1.431c-1.964,0-3.441,0.274-4.432,0.821
		c-0.992,0.548-1.842,1.369-2.549,2.464c-0.709,1.095-1.209,1.817-1.502,2.167c-0.292,0.35-0.92,0.523-1.883,0.523
		c-0.868,0-1.619-0.278-2.252-0.836c-0.632-0.557-0.948-1.27-0.948-2.138c0-1.359,0.481-2.681,1.444-3.965s2.464-2.341,4.503-3.172
		s4.578-1.246,7.618-1.246c3.398,0,6.07,0.401,8.015,1.204s3.318,2.072,4.12,3.809c0.803,1.737,1.204,4.041,1.204,6.91
		c0,1.813-0.005,3.352-0.015,4.616c-0.009,1.265-0.023,2.672-0.042,4.22c0,1.454,0.241,2.969,0.722,4.545
		c0.482,1.577,0.723,2.592,0.723,3.045c0,0.793-0.373,1.516-1.119,2.166c-0.745,0.652-1.59,0.978-2.534,0.978
		c-0.793,0-1.576-0.373-2.351-1.118C314.502,367.213,313.681,366.132,312.813,364.716z M312.303,353.529
		c-1.133,0.416-2.78,0.854-4.942,1.316c-2.161,0.463-3.657,0.803-4.488,1.02c-0.831,0.218-1.624,0.643-2.379,1.275
		s-1.133,1.515-1.133,2.647c0,1.171,0.443,2.167,1.331,2.987c0.888,0.822,2.049,1.232,3.483,1.232c1.529,0,2.94-0.335,4.234-1.006
		c1.293-0.67,2.241-1.533,2.846-2.591c0.698-1.171,1.048-3.097,1.048-5.777V353.529z"/>
	<path fill="#FFFFFF" stroke="#000000" stroke-miterlimit="10" d="M326.718,338.321h0.85v-4.645c0-1.246,0.033-2.224,0.1-2.931
		c0.065-0.709,0.25-1.317,0.552-1.827c0.302-0.528,0.736-0.958,1.303-1.288s1.199-0.496,1.897-0.496
		c0.981,0,1.869,0.368,2.662,1.104c0.528,0.491,0.863,1.091,1.006,1.798c0.141,0.709,0.212,1.714,0.212,3.017v5.268h2.832
		c1.095,0,1.931,0.26,2.507,0.778c0.575,0.52,0.863,1.186,0.863,1.997c0,1.038-0.41,1.766-1.232,2.181
		c-0.82,0.416-1.996,0.623-3.525,0.623h-1.444v14.217c0,1.209,0.042,2.139,0.128,2.789c0.084,0.652,0.311,1.181,0.68,1.586
		c0.367,0.406,0.967,0.609,1.798,0.609c0.453,0,1.066-0.08,1.841-0.24s1.378-0.241,1.813-0.241c0.623,0,1.185,0.251,1.686,0.751
		c0.5,0.5,0.75,1.118,0.75,1.854c0,1.246-0.68,2.2-2.039,2.86s-3.313,0.991-5.862,0.991c-2.417,0-4.248-0.406-5.494-1.218
		s-2.063-1.936-2.45-3.37c-0.387-1.435-0.58-3.351-0.58-5.749V343.9h-1.02c-1.114,0-1.964-0.264-2.549-0.793
		c-0.585-0.528-0.878-1.199-0.878-2.011s0.307-1.478,0.921-1.997C324.656,338.581,325.547,338.321,326.718,338.321z"/>
</g>
</svg>
